<mxfile host="www.draw.io" modified="2019-11-17T05:51:15.067Z" agent="Mozilla/5.0 (Windows NT 10.0; Win64; x64) AppleWebKit/537.36 (KHTML, like Gecko) Chrome/78.0.3904.97 Safari/537.36" etag="6H7elw0icHr1DvR2XVep" version="12.2.6" type="github" pages="1">
  <diagram id="RFsxWPVYaTZ1X2FQE8pN" name="Page-1">
    <mxGraphModel dx="1024" dy="534" grid="1" gridSize="10" guides="1" tooltips="1" connect="1" arrows="1" fold="1" page="1" pageScale="1" pageWidth="827" pageHeight="1169" math="0" shadow="0">
      <root>
        <mxCell id="0"/>
        <mxCell id="1" parent="0"/>
        <mxCell id="FE092PUmBruQup44gpSV-2" style="edgeStyle=orthogonalEdgeStyle;rounded=0;orthogonalLoop=1;jettySize=auto;html=1;exitX=1;exitY=0.5;exitDx=0;exitDy=0;endArrow=block;endFill=1;entryX=0;entryY=0.5;entryDx=0;entryDy=0;" edge="1" parent="1" source="FE092PUmBruQup44gpSV-1" target="FE092PUmBruQup44gpSV-7">
          <mxGeometry relative="1" as="geometry">
            <mxPoint x="420" y="220" as="targetPoint"/>
            <Array as="points"/>
          </mxGeometry>
        </mxCell>
        <mxCell id="FE092PUmBruQup44gpSV-1" value="Check Valid&amp;nbsp;&lt;br style=&quot;font-size: 13px;&quot;&gt;entries" style="ellipse;whiteSpace=wrap;html=1;aspect=fixed;fontSize=13;fontStyle=1" vertex="1" parent="1">
          <mxGeometry x="230" y="180" width="100" height="100" as="geometry"/>
        </mxCell>
        <mxCell id="FE092PUmBruQup44gpSV-3" value="" style="shape=link;html=1;endArrow=block;endFill=1;width=37;" edge="1" parent="1">
          <mxGeometry width="50" height="50" relative="1" as="geometry">
            <mxPoint x="641" y="229" as="sourcePoint"/>
            <mxPoint x="741" y="229" as="targetPoint"/>
          </mxGeometry>
        </mxCell>
        <mxCell id="FE092PUmBruQup44gpSV-4" value="User Information" style="text;html=1;resizable=0;points=[];autosize=1;align=left;verticalAlign=top;spacingTop=-4;fontSize=13;fontStyle=1" vertex="1" parent="1">
          <mxGeometry x="641" y="220" width="100" height="20" as="geometry"/>
        </mxCell>
        <mxCell id="FE092PUmBruQup44gpSV-13" style="edgeStyle=orthogonalEdgeStyle;rounded=0;orthogonalLoop=1;jettySize=auto;html=1;endArrow=block;endFill=1;" edge="1" parent="1" source="FE092PUmBruQup44gpSV-7">
          <mxGeometry relative="1" as="geometry">
            <mxPoint x="640" y="230" as="targetPoint"/>
            <Array as="points">
              <mxPoint x="640" y="230"/>
            </Array>
          </mxGeometry>
        </mxCell>
        <mxCell id="FE092PUmBruQup44gpSV-7" value="Capture Image" style="ellipse;whiteSpace=wrap;html=1;aspect=fixed;fontSize=13;fontStyle=1" vertex="1" parent="1">
          <mxGeometry x="420" y="180" width="100" height="100" as="geometry"/>
        </mxCell>
        <mxCell id="FE092PUmBruQup44gpSV-8" value="" style="endArrow=block;html=1;entryX=0;entryY=0.5;entryDx=0;entryDy=0;endFill=1;" edge="1" parent="1" target="FE092PUmBruQup44gpSV-1">
          <mxGeometry width="50" height="50" relative="1" as="geometry">
            <mxPoint x="130" y="230" as="sourcePoint"/>
            <mxPoint x="160" y="190" as="targetPoint"/>
          </mxGeometry>
        </mxCell>
        <mxCell id="FE092PUmBruQup44gpSV-25" style="edgeStyle=orthogonalEdgeStyle;rounded=0;orthogonalLoop=1;jettySize=auto;html=1;entryX=0.444;entryY=0;entryDx=0;entryDy=0;entryPerimeter=0;endArrow=block;endFill=1;" edge="1" parent="1" source="FE092PUmBruQup44gpSV-16" target="FE092PUmBruQup44gpSV-18">
          <mxGeometry relative="1" as="geometry"/>
        </mxCell>
        <mxCell id="FE092PUmBruQup44gpSV-16" value="generate QR code" style="ellipse;whiteSpace=wrap;html=1;aspect=fixed;fontSize=13;fontStyle=1" vertex="1" parent="1">
          <mxGeometry x="641" y="310" width="100" height="100" as="geometry"/>
        </mxCell>
        <mxCell id="FE092PUmBruQup44gpSV-18" value="Download QR" style="text;html=1;resizable=0;points=[];autosize=1;align=left;verticalAlign=top;spacingTop=-4;" vertex="1" parent="1">
          <mxGeometry x="651" y="460" width="90" height="20" as="geometry"/>
        </mxCell>
        <mxCell id="FE092PUmBruQup44gpSV-19" value="Validate details" style="text;html=1;resizable=0;points=[];autosize=1;align=left;verticalAlign=top;spacingTop=-4;" vertex="1" parent="1">
          <mxGeometry x="330" y="210" width="100" height="20" as="geometry"/>
        </mxCell>
        <mxCell id="FE092PUmBruQup44gpSV-20" value="enter details" style="text;html=1;resizable=0;points=[];autosize=1;align=left;verticalAlign=top;spacingTop=-4;" vertex="1" parent="1">
          <mxGeometry x="140" y="210" width="80" height="20" as="geometry"/>
        </mxCell>
        <mxCell id="FE092PUmBruQup44gpSV-21" value="account created" style="text;html=1;resizable=0;points=[];autosize=1;align=left;verticalAlign=top;spacingTop=-4;" vertex="1" parent="1">
          <mxGeometry x="530.5" y="230" width="100" height="20" as="geometry"/>
        </mxCell>
        <mxCell id="FE092PUmBruQup44gpSV-24" value="" style="endArrow=block;html=1;entryX=0.5;entryY=0;entryDx=0;entryDy=0;endFill=1;" edge="1" parent="1" target="FE092PUmBruQup44gpSV-16">
          <mxGeometry width="50" height="50" relative="1" as="geometry">
            <mxPoint x="691" y="240" as="sourcePoint"/>
            <mxPoint x="720" y="250" as="targetPoint"/>
          </mxGeometry>
        </mxCell>
        <mxCell id="FE092PUmBruQup44gpSV-28" value="&lt;font style=&quot;font-size: 13px&quot;&gt;&lt;b&gt;0.1.1&lt;/b&gt;&lt;/font&gt;" style="text;html=1;resizable=0;points=[];autosize=1;align=left;verticalAlign=top;spacingTop=-4;" vertex="1" parent="1">
          <mxGeometry x="260" y="260" width="40" height="20" as="geometry"/>
        </mxCell>
        <mxCell id="FE092PUmBruQup44gpSV-29" value="&lt;font style=&quot;font-size: 13px&quot;&gt;&lt;b&gt;0.1.3&lt;/b&gt;&lt;/font&gt;" style="text;html=1;resizable=0;points=[];autosize=1;align=left;verticalAlign=top;spacingTop=-4;" vertex="1" parent="1">
          <mxGeometry x="676" y="390" width="40" height="20" as="geometry"/>
        </mxCell>
        <mxCell id="FE092PUmBruQup44gpSV-30" value="&lt;font style=&quot;font-size: 13px&quot;&gt;&lt;b&gt;0.1.2&lt;/b&gt;&lt;/font&gt;" style="text;html=1;resizable=0;points=[];autosize=1;align=left;verticalAlign=top;spacingTop=-4;" vertex="1" parent="1">
          <mxGeometry x="450" y="260" width="40" height="20" as="geometry"/>
        </mxCell>
      </root>
    </mxGraphModel>
  </diagram>
</mxfile>
